<?xml version="1.0" encoding="utf-8"?>
<!-- Generator: Adobe Illustrator 18.1.0, SVG Export Plug-In . SVG Version: 6.00 Build 0)  -->
<svg version="1.1" id="Layer_1" xmlns="http://www.w3.org/2000/svg" xmlns:xlink="http://www.w3.org/1999/xlink" x="0px" y="0px"
	 viewBox="0 0 800 800" enable-background="new 0 0 800 800" xml:space="preserve">
<g>
	<g>
		<polygon fill="#1895A4" points="398.7,211.4 396.8,211.4 396.8,182.9 398.7,182.9 398.7,211.4 		"/>
	</g>
	<g>
		<polygon fill="#1895A4" points="394.8,211.4 392.9,211.4 392.9,182.9 394.8,182.9 394.8,211.4 		"/>
	</g>
	<g>
		<g>
			<polygon fill="#1895A4" points="125.3,226.5 124.4,224.8 148.5,210.8 148.5,182.9 150.5,182.9 150.5,211.9 125.3,226.5 			"/>
		</g>
		<g>
			<polygon fill="#1895A4" points="224.1,226.7 199,212.2 200,210.5 224.1,224.5 248.3,210.5 249.3,212.2 224.1,226.7 			"/>
		</g>
		<g>
			<polygon fill="#1895A4" points="273.8,226.7 248.6,212.2 249.6,210.5 273.8,224.5 297.5,210.8 297.5,183.5 273.3,169.5 
				274.3,167.8 299.4,182.3 299.4,211.9 273.8,226.7 			"/>
		</g>
		<g>
			<polygon fill="#1895A4" points="323.4,226.7 297.8,211.9 297.8,182.3 323,167.8 323.9,169.5 299.8,183.5 299.8,210.8 
				323.4,224.5 347.6,210.5 348.6,212.2 323.4,226.7 			"/>
		</g>
		<g>
			<polygon fill="#1895A4" points="50.3,269.4 25.1,254.8 26.1,253.1 50.3,267.1 74,253.4 74,226.1 49.8,212.1 50.8,210.4 
				75.9,224.9 75.9,254.6 50.3,269.4 			"/>
		</g>
		<g>
			<path fill="#1895A4" d="M99.9,269.4l-25.6-14.8v-29.6l25.6-14.8l25.6,14.8v29.6L99.9,269.4L99.9,269.4z M76.3,253.4l23.7,13.7
				l23.7-13.7v-27.4l-23.7-13.7l-23.7,13.7V253.4L76.3,253.4z"/>
		</g>
		<g>
			<g>
				<polygon fill="#1895A4" points="79,228.2 78.1,226.6 99.5,214.2 100.4,215.9 79,228.2 				"/>
			</g>
			<g>
				<polygon fill="#1895A4" points="99.5,265.3 78.1,253 79,251.3 100.4,263.6 99.5,265.3 				"/>
			</g>
			<g>
				<polygon fill="#1895A4" points="122.3,252.1 120.4,252.1 120.4,227.4 122.3,227.4 122.3,252.1 				"/>
			</g>
		</g>
		<g>
			<g>
				<polygon fill="#1895A4" points="153.5,271 152.5,269.3 173.9,257 174.9,258.7 153.5,271 				"/>
			</g>
			<g>
				<polygon fill="#1895A4" points="173.9,308.1 152.5,295.7 153.5,294.1 174.9,306.4 173.9,308.1 				"/>
			</g>
			<g>
				<polygon fill="#1895A4" points="196.8,294.9 194.8,294.9 194.8,270.2 196.8,270.2 196.8,294.9 				"/>
			</g>
		</g>
		<g>
			<g>
				<polygon fill="#1895A4" points="277.6,228.6 276.6,226.9 298,214.5 299,216.2 277.6,228.6 				"/>
			</g>
			<g>
				<polygon fill="#1895A4" points="298,265.6 276.6,253.3 277.6,251.6 299,263.9 298,265.6 				"/>
			</g>
			<g>
				<polygon fill="#1895A4" points="320.9,252.4 319,252.4 319,227.7 320.9,227.7 320.9,252.4 				"/>
			</g>
		</g>
		<g>
			<path fill="#1895A4" d="M149.6,269.4l-25.6-14.8v-29.6l25.6-14.8l25.6,14.8v29.6L149.6,269.4L149.6,269.4z M125.9,253.4
				l23.7,13.7l23.7-13.7v-27.4l-23.7-13.7l-23.7,13.7V253.4L125.9,253.4z"/>
		</g>
		<g>
			<polygon fill="#1895A4" points="199.2,269.4 173.6,254.6 173.6,225.5 175.6,225.5 175.6,253.4 199.2,267.1 222.9,253.4 
				222.9,226.1 198.8,212.1 199.7,210.4 224.9,224.9 224.9,254.6 199.2,269.4 			"/>
		</g>
		<g>
			<path fill="#1895A4" d="M248.9,269.4l-25.6-14.8v-29.6l25.6-14.8l25.6,14.8v29.6L248.9,269.4L248.9,269.4z M225.2,253.4
				l23.7,13.7l23.7-13.7v-27.4l-23.7-13.7l-23.7,13.7V253.4L225.2,253.4z"/>
		</g>
		<g>
			<path fill="#1895A4" d="M298.5,269.4l-25.6-14.8v-29.6l25.6-14.8l25.6,14.8v29.6L298.5,269.4L298.5,269.4z M274.9,253.4
				l23.7,13.7l23.7-13.7v-27.4l-23.7-13.7l-23.7,13.7V253.4L274.9,253.4z"/>
		</g>
		<g>
			<path fill="#1895A4" d="M348.2,269.4l-25.6-14.8v-29.6l25.6-14.8l25.6,14.8v29.6L348.2,269.4L348.2,269.4z M324.5,253.4
				l23.7,13.7l23.7-13.7v-27.4l-23.7-13.7l-23.7,13.7V253.4L324.5,253.4z"/>
		</g>
		<g>
			<polygon fill="#1895A4" points="374.1,254 372.2,254 372.2,224.9 397.8,210.1 423,224.7 422,226.4 397.8,212.4 374.1,226.1 
				374.1,254 			"/>
		</g>
		<g>
			<polygon fill="#1895A4" points="25.9,311.7 24.9,310 49.1,296.1 49.1,268.7 24.9,254.7 25.9,253.1 51,267.6 51,297.2 25.9,311.7 
							"/>
		</g>
		<g>
			<polygon fill="#1895A4" points="74.5,311.7 49.4,297.2 49.4,267.6 75,252.8 100.7,267.6 100.7,296.6 98.7,296.6 98.7,268.7 
				75,255 51.3,268.7 51.3,296.1 75.5,310 74.5,311.7 			"/>
		</g>
		<g>
			<path fill="#1895A4" d="M124.7,312L99,297.2v-29.6l25.6-14.8l25.6,14.8v29.6L124.7,312L124.7,312z M101,296.1l23.7,13.7
				l23.7-13.7v-27.4L124.7,255L101,268.7V296.1L101,296.1z"/>
		</g>
		<g>
			<path fill="#1895A4" d="M174.3,312l-25.6-14.8v-29.6l25.6-14.8l25.6,14.8v29.6L174.3,312L174.3,312z M150.6,296.1l23.7,13.7
				l23.7-13.7v-27.4L174.3,255l-23.7,13.7V296.1L150.6,296.1z"/>
		</g>
		<g>
			<path fill="#1895A4" d="M224,312l-25.6-14.8v-29.6l25.6-14.8l25.6,14.8v29.6L224,312L224,312z M200.3,296.1l23.7,13.7l23.7-13.7
				v-27.4L224,255l-23.7,13.7V296.1L200.3,296.1z"/>
		</g>
		<g>
			<path fill="#1895A4" d="M273.6,312L248,297.2v-29.6l25.6-14.8l25.6,14.8v29.6L273.6,312L273.6,312z M249.9,296.1l23.7,13.7
				l23.7-13.7v-27.4L273.6,255l-23.7,13.7V296.1L249.9,296.1z"/>
		</g>
		<g>
			<polygon fill="#1895A4" points="322.8,311.7 297.6,297.2 297.6,267.6 323.3,252.8 348.9,267.6 348.9,296.6 347,296.6 347,268.7 
				323.3,255 299.6,268.7 299.6,296.1 323.8,310 322.8,311.7 			"/>
		</g>
		<g>
			<polygon fill="#1895A4" points="349.2,296.6 347.3,296.6 347.3,267.6 372.4,253.1 373.4,254.7 349.2,268.7 349.2,296.6 			"/>
		</g>
		<g>
			<polygon fill="#1895A4" points="74.3,311.6 50.1,297.7 26,311.6 25,309.9 50.1,295.4 75.3,309.9 74.3,311.6 			"/>
		</g>
		<g>
			<polygon fill="#1895A4" points="99.8,354.6 74.6,340.1 75.6,338.4 99.8,352.4 123.5,338.7 123.5,311.3 99.3,297.4 100.3,295.7 
				125.4,310.2 125.4,339.8 99.8,354.6 			"/>
		</g>
		<g>
			<path fill="#1895A4" d="M149.4,354.6l-25.6-14.8v-29.6l25.6-14.8l25.6,14.8v29.6L149.4,354.6L149.4,354.6z M125.7,338.7
				l23.7,13.7l23.7-13.7v-27.4l-23.7-13.7l-23.7,13.7V338.7L125.7,338.7z"/>
		</g>
		<g>
			<polygon fill="#1895A4" points="224.7,339.2 222.8,339.2 222.8,311.3 199.1,297.7 175.4,311.3 175.4,339.2 173.4,339.2 
				173.4,310.2 199.1,295.4 224.7,310.2 224.7,339.2 			"/>
		</g>
		<g>
			<path fill="#1895A4" d="M248.7,354.6l-25.6-14.8v-29.6l25.6-14.8l25.6,14.8v29.6L248.7,354.6L248.7,354.6z M225,338.7l23.7,13.7
				l23.7-13.7v-27.4l-23.7-13.7L225,311.3V338.7L225,338.7z"/>
		</g>
		<g>
			<polygon fill="#1895A4" points="324,339.2 322.1,339.2 322.1,311.3 298.4,297.7 274.7,311.3 274.7,339.2 272.7,339.2 
				272.7,310.2 298.4,295.4 324,310.2 324,339.2 			"/>
		</g>
		<g>
			<polygon fill="#1895A4" points="100.8,381.9 98.9,381.9 98.9,352.8 124.5,338 149.7,352.5 148.7,354.2 124.5,340.3 100.8,354 
				100.8,381.9 			"/>
		</g>
	</g>
	<g>
		<path fill="#1895A4" d="M32.9,213.5c-0.4,0.2-1.3,0.4-2.4,0.4c-2.6,0-4.5-1.6-4.5-4.6c0-2.9,1.9-4.8,4.7-4.8
			c1.1,0,1.8,0.2,2.2,0.4l-0.3,1c-0.4-0.2-1.1-0.4-1.8-0.4c-2.1,0-3.5,1.4-3.5,3.7c0,2.2,1.3,3.6,3.5,3.6c0.7,0,1.5-0.1,1.9-0.4
			L32.9,213.5z"/>
		<path fill="#1895A4" d="M35.5,204.7v3.8h4.4v-3.8h1.2v9.1h-1.2v-4.3h-4.4v4.3h-1.2v-9.1H35.5z"/>
	</g>
	<g>
		<path fill="#1895A4" d="M147.9,177.5c-0.4,0.2-1.3,0.4-2.4,0.4c-2.6,0-4.5-1.6-4.5-4.6c0-2.9,1.9-4.8,4.7-4.8
			c1.1,0,1.8,0.2,2.2,0.4l-0.3,1c-0.4-0.2-1.1-0.4-1.8-0.4c-2.1,0-3.5,1.4-3.5,3.7c0,2.2,1.3,3.6,3.5,3.6c0.7,0,1.5-0.1,1.9-0.4
			L147.9,177.5z"/>
		<path fill="#1895A4" d="M150.5,168.7v3.8h4.4v-3.8h1.2v9.1h-1.2v-4.3h-4.4v4.3h-1.2v-9.1H150.5z"/>
		<path fill="#1895A4" d="M157.4,179.8v-0.4l0.5-0.5c1.3-1.2,1.9-1.9,1.9-2.7c0-0.5-0.2-1-1-1c-0.5,0-0.8,0.2-1.1,0.4l-0.2-0.5
			c0.3-0.3,0.9-0.5,1.4-0.5c1.1,0,1.6,0.8,1.6,1.5c0,0.9-0.7,1.7-1.8,2.7l-0.4,0.4v0h2.3v0.6H157.4z"/>
	</g>
	<g>
		<path fill="#1895A4" d="M100.2,398.3c-0.4,0.2-1.3,0.4-2.4,0.4c-2.6,0-4.5-1.6-4.5-4.6c0-2.9,1.9-4.8,4.7-4.8
			c1.1,0,1.8,0.2,2.2,0.4l-0.3,1c-0.4-0.2-1.1-0.4-1.8-0.4c-2.1,0-3.5,1.4-3.5,3.7c0,2.2,1.3,3.6,3.5,3.6c0.7,0,1.5-0.1,1.9-0.4
			L100.2,398.3z"/>
		<path fill="#1895A4" d="M101.6,389.1h1.2v9.6h-1.2V389.1z"/>
	</g>
	<g>
		<path fill="#1895A4" d="M400.2,173.8c0,3.1-1.9,4.8-4.2,4.8c-2.4,0-4.1-1.9-4.1-4.6c0-2.9,1.8-4.8,4.2-4.8
			C398.6,169.2,400.2,171.1,400.2,173.8z M393.1,174c0,2,1,3.7,2.9,3.7c1.9,0,2.9-1.7,2.9-3.8c0-1.8-0.9-3.7-2.9-3.7
			C394.1,170.2,393.1,172,393.1,174z"/>
	</g>
	<g>
		<path fill="#1895A4" d="M11.5,313c0,3.1-1.9,4.8-4.2,4.8c-2.4,0-4.1-1.9-4.1-4.6c0-2.9,1.8-4.8,4.2-4.8
			C9.9,308.4,11.5,310.3,11.5,313z M4.4,313.1c0,2,1,3.7,2.9,3.7c1.9,0,2.9-1.7,2.9-3.8c0-1.8-0.9-3.7-2.9-3.7
			C5.4,309.3,4.4,311.1,4.4,313.1z"/>
		<path fill="#1895A4" d="M14.1,308.5v3.8h4.4v-3.8h1.2v9.1h-1.2v-4.3h-4.4v4.3H13v-9.1H14.1z"/>
	</g>
</g>
<g>
	<path fill="#FFFFFF" d="M366.6,692c-1.1,0-2-0.9-2-2c0-1.1,0.9-2,2-2c4.6,0,9.3-0.2,13.9-0.4c1.1-0.1,2.1,0.8,2.1,1.9
		c0.1,1.1-0.8,2.1-1.9,2.1C376.1,691.9,371.3,692,366.6,692C366.6,692,366.6,692,366.6,692L366.6,692z M352.6,691.7c0,0-0.1,0-0.1,0
		c-4.7-0.2-9.4-0.6-14.1-1.1c-1.1-0.1-1.9-1.1-1.8-2.2c0.1-1.1,1.1-1.9,2.2-1.8c4.6,0.5,9.3,0.8,13.9,1.1c1.1,0.1,2,1,1.9,2.1
		C354.5,690.9,353.6,691.7,352.6,691.7L352.6,691.7z M394.6,690.4c-1,0-1.9-0.8-2-1.8c-0.1-1.1,0.7-2.1,1.8-2.2
		c4.6-0.5,9.2-1.2,13.8-1.9c1.1-0.2,2.1,0.6,2.3,1.7c0.2,1.1-0.6,2.1-1.7,2.3c-4.6,0.8-9.3,1.4-14,1.9
		C394.8,690.4,394.7,690.4,394.6,690.4L394.6,690.4z M324.6,688.8c-0.1,0-0.2,0-0.3,0c-4.6-0.7-9.3-1.6-13.9-2.6
		c-1.1-0.2-1.8-1.3-1.5-2.4c0.2-1.1,1.3-1.8,2.4-1.5c4.5,1,9.1,1.8,13.7,2.6c1.1,0.2,1.8,1.2,1.7,2.3
		C326.5,688.1,325.6,688.8,324.6,688.8L324.6,688.8z M422.3,685.8c-0.9,0-1.7-0.6-2-1.6c-0.2-1.1,0.4-2.2,1.5-2.4
		c4.5-1,9.1-2.1,13.5-3.4c1.1-0.3,2.2,0.3,2.5,1.4c0.3,1.1-0.3,2.2-1.4,2.5c-4.5,1.3-9.1,2.4-13.7,3.4
		C422.6,685.8,422.4,685.8,422.3,685.8L422.3,685.8z M297.2,682.9c-0.2,0-0.4,0-0.5-0.1c-4.5-1.2-9.1-2.6-13.5-4.1
		c-1.1-0.3-1.6-1.5-1.3-2.5c0.3-1.1,1.5-1.6,2.5-1.3c4.4,1.5,8.9,2.8,13.3,4c1.1,0.3,1.7,1.4,1.4,2.5
		C298.9,682.3,298.1,682.9,297.2,682.9L297.2,682.9z M449.3,678.2c-0.8,0-1.6-0.5-1.9-1.4c-0.4-1,0.2-2.2,1.3-2.5
		c4.4-1.5,8.8-3.1,13.1-4.8c1-0.4,2.2,0.1,2.6,1.1c0.4,1-0.1,2.2-1.1,2.6c-4.4,1.8-8.8,3.4-13.3,4.9
		C449.8,678.2,449.5,678.2,449.3,678.2L449.3,678.2z M270.5,674.1c-0.2,0-0.5,0-0.7-0.1c-4.4-1.7-8.8-3.6-13-5.5
		c-1-0.5-1.5-1.7-1-2.7c0.5-1,1.7-1.4,2.7-1c4.2,1.9,8.5,3.8,12.8,5.5c1,0.4,1.5,1.6,1.1,2.6C272.1,673.6,271.3,674.1,270.5,674.1
		L270.5,674.1z M475.3,667.8c-0.8,0-1.5-0.4-1.8-1.2c-0.5-1,0-2.2,1-2.7c4.2-2,8.4-4,12.4-6.2c1-0.5,2.2-0.2,2.7,0.8
		c0.5,1,0.2,2.2-0.8,2.7c-4.1,2.2-8.4,4.3-12.6,6.3C475.9,667.7,475.6,667.8,475.3,667.8L475.3,667.8z M245,662.4
		c-0.3,0-0.6-0.1-0.9-0.2c-4.2-2.2-8.3-4.5-12.4-6.9c-1-0.6-1.3-1.8-0.7-2.8c0.6-1,1.8-1.3,2.8-0.7c4,2.4,8.1,4.7,12.2,6.8
		c1,0.5,1.4,1.7,0.8,2.7C246.4,662,245.7,662.4,245,662.4L245,662.4z M500.1,654.6c-0.7,0-1.3-0.3-1.7-1c-0.6-0.9-0.3-2.2,0.7-2.8
		c3.9-2.4,7.9-4.9,11.7-7.5c0.9-0.6,2.2-0.4,2.8,0.5c0.6,0.9,0.4,2.2-0.5,2.8c-3.9,2.6-7.9,5.2-11.9,7.6
		C500.8,654.5,500.4,654.6,500.1,654.6L500.1,654.6z M220.8,648c-0.4,0-0.8-0.1-1.1-0.3c-3.9-2.6-7.8-5.4-11.5-8.2
		c-0.9-0.7-1.1-1.9-0.4-2.8c0.7-0.9,1.9-1.1,2.8-0.4c3.7,2.8,7.5,5.5,11.4,8.1c0.9,0.6,1.2,1.9,0.5,2.8
		C222.1,647.7,221.5,648,220.8,648L220.8,648z M523.2,638.8c-0.6,0-1.2-0.3-1.6-0.8c-0.7-0.9-0.5-2.1,0.4-2.8
		c3.7-2.8,7.3-5.8,10.8-8.8c0.8-0.7,2.1-0.6,2.8,0.2c0.7,0.8,0.6,2.1-0.2,2.8c-3.6,3-7.3,6-11,8.9
		C524.1,638.6,523.7,638.8,523.2,638.8L523.2,638.8z M198.4,631.1c-0.5,0-0.9-0.2-1.3-0.5c-3.6-3-7.2-6.2-10.6-9.4
		c-0.8-0.8-0.8-2-0.1-2.8c0.8-0.8,2-0.8,2.8-0.1c3.4,3.2,6.9,6.3,10.4,9.3c0.8,0.7,1,2,0.2,2.8C199.5,630.9,199,631.1,198.4,631.1
		L198.4,631.1z M544.6,620.6c-0.5,0-1.1-0.2-1.5-0.6c-0.8-0.8-0.7-2.1,0.1-2.8c3.3-3.2,6.7-6.5,9.8-9.9c0.8-0.8,2-0.8,2.8-0.1
		c0.8,0.8,0.8,2,0.1,2.8c-3.2,3.4-6.6,6.8-10,10C545.6,620.4,545.1,620.6,544.6,620.6L544.6,620.6z M177.9,611.9
		c-0.5,0-1.1-0.2-1.4-0.6c-3.3-3.4-6.4-6.9-9.5-10.5c-0.7-0.8-0.6-2.1,0.2-2.8c0.8-0.7,2.1-0.6,2.8,0.2c3,3.5,6.2,7,9.4,10.3
		c0.8,0.8,0.7,2.1-0.1,2.8C178.9,611.7,178.4,611.9,177.9,611.9L177.9,611.9z M563.9,600.1c-0.5,0-0.9-0.2-1.3-0.5
		c-0.8-0.7-0.9-2-0.2-2.8c3-3.5,5.9-7.2,8.7-10.9c0.7-0.9,1.9-1.1,2.8-0.4c0.9,0.7,1.1,1.9,0.4,2.8c-2.8,3.7-5.8,7.5-8.9,11
		C565,599.9,564.4,600.1,563.9,600.1L563.9,600.1z M159.6,590.6c-0.6,0-1.2-0.3-1.6-0.8c-2.9-3.7-5.7-7.6-8.3-11.4
		c-0.6-0.9-0.4-2.2,0.5-2.8c0.9-0.6,2.2-0.4,2.8,0.5c2.6,3.8,5.4,7.6,8.2,11.3c0.7,0.9,0.5,2.1-0.4,2.8
		C160.5,590.5,160.1,590.6,159.6,590.6L159.6,590.6z M580.8,577.8c-0.4,0-0.8-0.1-1.1-0.3c-0.9-0.6-1.2-1.9-0.5-2.8
		c2.6-3.8,5.1-7.8,7.5-11.7c0.6-1,1.8-1.3,2.8-0.7c0.9,0.6,1.3,1.8,0.7,2.8c-2.4,4-5,8-7.6,11.9
		C582.1,577.5,581.5,577.8,580.8,577.8L580.8,577.8z M143.7,567.5c-0.7,0-1.3-0.3-1.7-1c-2.4-4-4.8-8.1-7-12.3
		c-0.5-1-0.2-2.2,0.8-2.7c1-0.5,2.2-0.2,2.7,0.8c2.2,4.1,4.5,8.1,6.9,12.1c0.6,0.9,0.3,2.2-0.7,2.8
		C144.5,567.4,144.1,567.5,143.7,567.5L143.7,567.5z M595.3,553.7c-0.3,0-0.6-0.1-0.9-0.2c-1-0.5-1.4-1.7-0.8-2.7
		c2.2-4.1,4.3-8.3,6.2-12.5c0.5-1,1.7-1.4,2.7-1c1,0.5,1.4,1.7,1,2.7c-2,4.3-4.1,8.5-6.3,12.7C596.7,553.3,596,553.7,595.3,553.7
		L595.3,553.7z M130.4,542.8c-0.8,0-1.5-0.4-1.8-1.2c-2-4.2-3.9-8.6-5.7-12.9c-0.4-1,0.1-2.2,1.1-2.6c1-0.4,2.2,0.1,2.6,1.1
		c1.7,4.3,3.6,8.6,5.6,12.7c0.5,1,0,2.2-1,2.7C131,542.8,130.7,542.8,130.4,542.8L130.4,542.8z M607.1,528.2c-0.2,0-0.5,0-0.7-0.1
		c-1-0.4-1.5-1.6-1.1-2.6c1.7-4.3,3.3-8.7,4.8-13.1c0.4-1.1,1.5-1.6,2.5-1.3c1,0.4,1.6,1.5,1.3,2.5c-1.5,4.5-3.1,8.9-4.9,13.3
		C608.7,527.7,607.9,528.2,607.1,528.2L607.1,528.2z M119.9,516.9c-0.8,0-1.6-0.5-1.9-1.4c-1.5-4.4-3-9-4.2-13.5
		c-0.3-1.1,0.3-2.2,1.4-2.5c1.1-0.3,2.2,0.3,2.5,1.4c1.3,4.5,2.7,8.9,4.2,13.3c0.4,1-0.2,2.2-1.2,2.6
		C120.3,516.8,120.1,516.9,119.9,516.9L119.9,516.9z M616.1,501.6c-0.2,0-0.4,0-0.5-0.1c-1.1-0.3-1.7-1.4-1.4-2.5
		c1.2-4.5,2.4-9,3.3-13.5c0.2-1.1,1.3-1.8,2.4-1.5c1.1,0.2,1.8,1.3,1.5,2.4c-1,4.6-2.1,9.2-3.4,13.7
		C617.8,501,616.9,501.6,616.1,501.6L616.1,501.6z M112.2,489.9c-0.9,0-1.7-0.6-2-1.6c-1-4.6-2-9.3-2.8-13.9
		c-0.2-1.1,0.5-2.1,1.6-2.3c1.1-0.2,2.1,0.6,2.3,1.6c0.8,4.6,1.7,9.2,2.7,13.7c0.2,1.1-0.4,2.2-1.5,2.4
		C112.5,489.8,112.3,489.9,112.2,489.9L112.2,489.9z M622.1,474.1c-0.1,0-0.2,0-0.3,0c-1.1-0.2-1.8-1.2-1.7-2.3
		c0.7-4.6,1.4-9.2,1.9-13.8c0.1-1.1,1.1-1.9,2.2-1.8c1.1,0.1,1.9,1.1,1.8,2.2c-0.5,4.7-1.1,9.4-1.9,14
		C623.9,473.4,623,474.1,622.1,474.1L622.1,474.1z M107.5,462.2c-1,0-1.9-0.8-2-1.8c-0.5-4.7-1-9.4-1.2-14.1
		c-0.1-1.1,0.8-2.1,1.9-2.1c1.1-0.1,2.1,0.8,2.1,1.9c0.3,4.6,0.7,9.3,1.2,13.9c0.1,1.1-0.7,2.1-1.8,2.2
		C107.6,462.2,107.5,462.2,107.5,462.2L107.5,462.2z M625.1,446.2c0,0-0.1,0-0.1,0c-1.1-0.1-2-1-1.9-2.1c0.2-4.6,0.4-9.3,0.4-13.9
		c0-1.3,0-2.6,0-3.9c0-1.1,0.9-2,2-2c1.1-0.1,2,0.9,2,2c0,1.3,0,2.7,0,4c0,4.7-0.1,9.5-0.4,14.1C627,445.4,626.1,446.2,625.1,446.2
		L625.1,446.2z M105.8,434.2c-1.1,0-2-0.9-2-2l0-2c0-4,0.1-8.1,0.3-12.1c0.1-1.1,1-1.9,2.1-1.9c1.1,0.1,2,1,1.9,2.1
		c-0.2,4-0.3,8-0.3,12l0,2C107.8,433.3,106.9,434.2,105.8,434.2C105.8,434.2,105.8,434.2,105.8,434.2L105.8,434.2z M624.8,414.2
		c-1,0-1.9-0.8-2-1.9c-0.3-4.6-0.8-9.3-1.3-13.9c-0.1-1.1,0.6-2.1,1.7-2.2c1.1-0.1,2.1,0.6,2.2,1.7c0.6,4.6,1,9.4,1.3,14.1
		c0.1,1.1-0.8,2.1-1.9,2.1C624.9,414.2,624.9,414.2,624.8,414.2L624.8,414.2z M107.1,406.1c-0.1,0-0.1,0-0.2,0
		c-1.1-0.1-1.9-1.1-1.8-2.2c0.5-4.7,1.1-9.4,1.8-14c0.2-1.1,1.2-1.9,2.3-1.7c1.1,0.2,1.8,1.2,1.7,2.3c-0.7,4.6-1.3,9.2-1.8,13.8
		C108.9,405.4,108.1,406.1,107.1,406.1L107.1,406.1z M621.4,386.3c-1,0-1.8-0.7-2-1.7c-0.8-4.5-1.8-9.1-2.8-13.6
		c-0.3-1.1,0.4-2.2,1.5-2.4c1.1-0.3,2.2,0.4,2.4,1.5c1.1,4.6,2,9.2,2.9,13.9c0.2,1.1-0.5,2.1-1.6,2.3
		C621.6,386.3,621.5,386.3,621.4,386.3L621.4,386.3z M111.3,378.4c-0.1,0-0.3,0-0.4,0c-1.1-0.2-1.8-1.3-1.5-2.4
		c1-4.6,2.1-9.2,3.3-13.8c0.3-1.1,1.4-1.7,2.5-1.4c1.1,0.3,1.7,1.4,1.4,2.5c-1.2,4.5-2.3,9-3.2,13.5
		C113.1,377.8,112.3,378.4,111.3,378.4L111.3,378.4z M615,359c-0.9,0-1.7-0.6-1.9-1.4c-1.3-4.4-2.7-8.9-4.3-13.3
		c-0.4-1,0.2-2.2,1.2-2.6c1-0.4,2.2,0.2,2.6,1.2c1.6,4.4,3,9,4.3,13.5c0.3,1.1-0.3,2.2-1.4,2.5C615.4,359,615.2,359,615,359L615,359
		z M118.6,351.3c-0.2,0-0.4,0-0.6-0.1c-1.1-0.3-1.6-1.5-1.3-2.5c1.5-4.5,3.1-9,4.8-13.3c0.4-1,1.6-1.5,2.6-1.1
		c1,0.4,1.5,1.6,1.1,2.6c-1.7,4.3-3.3,8.7-4.7,13.1C120.2,350.8,119.4,351.3,118.6,351.3L118.6,351.3z M605.6,332.6
		c-0.8,0-1.5-0.5-1.9-1.2c-1.8-4.3-3.7-8.5-5.7-12.7c-0.5-1-0.1-2.2,0.9-2.7c1-0.5,2.2-0.1,2.7,0.9c2,4.2,4,8.6,5.8,12.9
		c0.4,1-0.1,2.2-1.1,2.6C606.2,332.5,605.9,332.6,605.6,332.6L605.6,332.6z M128.8,325.1c-0.3,0-0.6-0.1-0.8-0.2
		c-1-0.5-1.5-1.6-1-2.7c1.9-4.3,4-8.6,6.2-12.7c0.5-1,1.7-1.4,2.7-0.9c1,0.5,1.4,1.7,0.9,2.7c-2.1,4.1-4.2,8.3-6.1,12.5
		C130.3,324.6,129.6,325.1,128.8,325.1L128.8,325.1z M593.5,307.3c-0.7,0-1.4-0.4-1.8-1c-2.2-4-4.6-8.1-7-12
		c-0.6-0.9-0.3-2.2,0.6-2.8c0.9-0.6,2.2-0.3,2.8,0.6c2.5,4,4.9,8.1,7.1,12.2c0.5,1,0.2,2.2-0.8,2.7
		C594.2,307.2,593.8,307.3,593.5,307.3L593.5,307.3z M141.8,300.1c-0.3,0-0.7-0.1-1-0.3c-1-0.6-1.3-1.8-0.7-2.7
		c2.4-4.1,4.9-8.1,7.5-12c0.6-0.9,1.9-1.2,2.8-0.6c0.9,0.6,1.2,1.9,0.6,2.8c-2.6,3.8-5.1,7.8-7.4,11.8
		C143.1,299.8,142.5,300.1,141.8,300.1L141.8,300.1z M578.7,283.5c-0.6,0-1.3-0.3-1.6-0.9c-2.6-3.8-5.4-7.6-8.3-11.2
		c-0.7-0.9-0.5-2.1,0.3-2.8c0.9-0.7,2.1-0.5,2.8,0.3c2.9,3.7,5.7,7.5,8.4,11.4c0.6,0.9,0.4,2.2-0.5,2.8
		C579.5,283.4,579.1,283.5,578.7,283.5L578.7,283.5z M157.3,276.8c-0.4,0-0.8-0.1-1.2-0.4c-0.9-0.7-1.1-1.9-0.4-2.8
		c2.8-3.8,5.8-7.5,8.8-11.1c0.7-0.9,2-1,2.8-0.3c0.9,0.7,1,2,0.3,2.8c-3,3.6-5.9,7.2-8.6,10.9C158.6,276.5,158,276.8,157.3,276.8
		L157.3,276.8z M561.4,261.4c-0.6,0-1.1-0.2-1.5-0.7c-3-3.5-6.2-6.9-9.4-10.2c-0.8-0.8-0.8-2.1,0-2.8c0.8-0.8,2.1-0.8,2.8,0
		c3.3,3.4,6.5,6.9,9.6,10.4c0.7,0.8,0.6,2.1-0.2,2.8C562.4,261.2,561.9,261.4,561.4,261.4L561.4,261.4z M175.3,255.2
		c-0.5,0-1-0.2-1.4-0.5c-0.8-0.8-0.9-2-0.1-2.8c3.2-3.4,6.5-6.8,9.9-10.1c0.8-0.8,2.1-0.7,2.8,0c0.8,0.8,0.7,2.1,0,2.8
		c-3.3,3.2-6.6,6.6-9.8,9.9C176.4,255,175.9,255.2,175.3,255.2L175.3,255.2z M541.8,241.3c-0.5,0-1-0.2-1.4-0.5
		c-3.4-3.1-6.9-6.2-10.5-9.2c-0.9-0.7-1-2-0.3-2.8c0.7-0.9,2-1,2.8-0.3c3.6,3,7.2,6.1,10.6,9.3c0.8,0.8,0.9,2,0.1,2.8
		C542.9,241.1,542.4,241.3,541.8,241.3L541.8,241.3z M195.5,235.7c-0.6,0-1.1-0.2-1.5-0.7c-0.7-0.8-0.6-2.1,0.2-2.8
		c3.5-3.1,7.2-6.1,10.9-9c0.9-0.7,2.1-0.5,2.8,0.4c0.7,0.9,0.5,2.1-0.4,2.8c-3.6,2.8-7.3,5.8-10.8,8.8
		C196.5,235.6,196,235.7,195.5,235.7L195.5,235.7z M520.2,223.4c-0.4,0-0.8-0.1-1.2-0.4c-3.7-2.8-7.6-5.4-11.4-8
		c-0.9-0.6-1.2-1.9-0.6-2.8c0.6-0.9,1.9-1.2,2.8-0.6c3.9,2.6,7.8,5.3,11.6,8.1c0.9,0.7,1.1,1.9,0.4,2.8
		C521.4,223.1,520.8,223.4,520.2,223.4L520.2,223.4z M217.7,218.5c-0.6,0-1.3-0.3-1.7-0.9c-0.6-0.9-0.4-2.2,0.5-2.8
		c3.9-2.7,7.8-5.3,11.8-7.7c0.9-0.6,2.2-0.3,2.8,0.7c0.6,0.9,0.3,2.2-0.7,2.8c-3.9,2.4-7.9,5-11.6,7.6
		C218.5,218.4,218.1,218.5,217.7,218.5L217.7,218.5z M496.8,207.9c-0.3,0-0.7-0.1-1-0.3c-4-2.3-8.1-4.6-12.2-6.7
		c-1-0.5-1.4-1.7-0.9-2.7c0.5-1,1.7-1.4,2.7-0.9c4.2,2.2,8.3,4.4,12.4,6.8c1,0.6,1.3,1.8,0.7,2.7
		C498.2,207.5,497.5,207.9,496.8,207.9L496.8,207.9z M241.6,203.8c-0.7,0-1.4-0.4-1.8-1c-0.5-1-0.2-2.2,0.8-2.7
		c4.1-2.2,8.4-4.4,12.6-6.4c1-0.5,2.2-0.1,2.7,0.9c0.5,1,0.1,2.2-0.9,2.7c-4.2,2-8.3,4.1-12.4,6.3
		C242.2,203.7,241.9,203.8,241.6,203.8L241.6,203.8z M471.8,195c-0.3,0-0.6-0.1-0.8-0.2c-4.2-1.9-8.6-3.7-12.9-5.4
		c-1-0.4-1.6-1.6-1.2-2.6c0.4-1,1.6-1.6,2.6-1.2c4.4,1.7,8.8,3.5,13.1,5.4c1,0.5,1.5,1.6,1,2.7C473.3,194.6,472.6,195,471.8,195
		L471.8,195z M266.9,191.8c-0.8,0-1.5-0.5-1.9-1.2c-0.4-1,0.1-2.2,1.1-2.6c4.3-1.8,8.8-3.5,13.2-5c1-0.4,2.2,0.2,2.6,1.2
		c0.4,1-0.2,2.2-1.2,2.6c-4.4,1.5-8.7,3.2-13,4.9C267.4,191.7,267.1,191.8,266.9,191.8L266.9,191.8z M445.6,184.9
		c-0.2,0-0.4,0-0.6-0.1c-4.4-1.4-8.9-2.7-13.4-3.9c-1.1-0.3-1.7-1.4-1.4-2.5c0.3-1.1,1.4-1.7,2.5-1.4c4.5,1.2,9.1,2.5,13.6,4
		c1.1,0.3,1.6,1.5,1.3,2.5C447.2,184.4,446.4,184.9,445.6,184.9L445.6,184.9z M293.4,182.5c-0.9,0-1.7-0.6-1.9-1.4
		c-0.3-1.1,0.3-2.2,1.4-2.5c4.5-1.3,9.1-2.5,13.7-3.6c1.1-0.2,2.2,0.4,2.4,1.5c0.3,1.1-0.4,2.2-1.5,2.4c-4.5,1-9,2.2-13.5,3.5
		C293.8,182.5,293.6,182.5,293.4,182.5L293.4,182.5z M418.4,177.7c-0.1,0-0.3,0-0.4,0c-4.5-0.9-9.1-1.8-13.7-2.4
		c-1.1-0.2-1.9-1.2-1.7-2.3c0.2-1.1,1.2-1.8,2.3-1.7c4.6,0.7,9.3,1.5,13.9,2.5c1.1,0.2,1.8,1.3,1.6,2.4
		C420.2,177.1,419.4,177.7,418.4,177.7L418.4,177.7z M320.7,176.2c-1,0-1.8-0.7-2-1.7c-0.2-1.1,0.5-2.1,1.6-2.3
		c4.6-0.8,9.3-1.5,14-2c1.1-0.1,2.1,0.7,2.2,1.8c0.1,1.1-0.7,2.1-1.8,2.2c-4.6,0.5-9.2,1.2-13.8,2
		C321,176.2,320.8,176.2,320.7,176.2L320.7,176.2z M390.7,173.6c-0.1,0-0.1,0-0.2,0c-4.6-0.4-9.3-0.8-13.9-1c-1.1,0-2-1-1.9-2.1
		c0-1.1,1-2,2.1-1.9c4.7,0.2,9.4,0.5,14.1,1c1.1,0.1,1.9,1.1,1.8,2.2C392.6,172.8,391.7,173.6,390.7,173.6L390.7,173.6z
		 M348.6,172.9c-1,0-1.9-0.8-2-1.9c-0.1-1.1,0.8-2.1,1.9-2.1c4.7-0.3,9.4-0.5,14.1-0.5c1.2,0,2,0.9,2,2c0,1.1-0.9,2-2,2
		c-4.6,0.1-9.3,0.2-13.9,0.5C348.7,172.9,348.6,172.9,348.6,172.9L348.6,172.9z"/>
</g>
<path fill="#FDC015" d="M200.9,318.1c0.8,39.9-30.8,72.9-70.7,73.8c-39.9,0.8-72.9-30.8-73.8-70.7c-0.8-39.9,30.8-72.9,70.7-73.8
	C167,246.6,200.1,278.2,200.9,318.1z"/>
<g>
	<path fill="#1895A4" d="M169.6,652.6h-17.1l-4.6,12.9h-5.5l17.6-47.3h2.5l17.7,47.3h-5.8L169.6,652.6z M154.3,647.8h13.6l-5.2-14.2
		l-1.7-7h-0.1l-1.7,7.2L154.3,647.8z"/>
</g>
<g>
	<path fill="#1895A4" d="M145.2,436.2l-6.8-9.9h4l3.9,5.6l1.1,2.3l1.2-2.3l3.9-5.6h3.7l-6.9,9.8l7.3,10.6h-3.9l-4.3-6.2l-1.2-2.4
		l-1.3,2.4l-4.4,6.2h-3.6L145.2,436.2z"/>
	<path fill="#1895A4" d="M159.3,431.4h7.2v-7.3h2.9v7.3h7.2v2.9h-7.2v7.3h-2.9v-7.3h-7.2V431.4z"/>
	<path fill="#1895A4" d="M187.4,439.5l1.1,3.9h0.2l0.9-3.9l4-13.1h3.3l-6,18.3c-0.5,1.3-0.9,2.6-1.4,3.9c-0.4,1.2-0.9,2.4-1.5,3.3
		c-0.5,1-1.2,1.8-1.8,2.3c-0.7,0.6-1.5,0.9-2.4,0.9c-1,0-1.8-0.1-2.4-0.4l0.6-2.8c0.4,0.1,0.7,0.2,1,0.2c0.8,0,1.5-0.4,2.2-1.2
		c0.7-0.8,1.3-2.2,1.7-4.1l-8.2-20.3h3.7L187.4,439.5z"/>
</g>
<g>
	<path fill="#1895A4" d="M511.8,136.3h4.6v-13.2l0.5-2.3l-1.6,2l-3,2l-1.8-2.5l7.6-6.1h2.4v20.1h4.5v3.7h-13.3V136.3z"/>
</g>
<g>
	<path fill="#1895A4" d="M712.6,216.5h11.6v-11.9h4.8v11.9h11.6v4.8H729v11.9h-4.8v-11.9h-11.6V216.5z"/>
</g>
<g>
	<path fill="#1895A4" d="M690,207.9c0,2.2-0.4,4.5-1.2,6.7c-0.8,2.3-1.8,4.5-3.1,6.7c-1.2,2.2-2.6,4.3-4.1,6.3c-1.5,2-3,3.9-4.4,5.6
		l-3.5,2.7v0.3l4.7-0.9H691v7.2h-27.6v-4.4c1-1.1,2.2-2.4,3.5-3.8c1.3-1.5,2.6-3,4-4.7c1.3-1.6,2.6-3.3,3.9-5.1
		c1.3-1.7,2.4-3.5,3.4-5.3c1-1.8,1.8-3.5,2.4-5.1c0.6-1.7,0.9-3.2,0.9-4.7c0-1.8-0.5-3.3-1.5-4.4c-1-1.2-2.7-1.7-4.9-1.7
		c-1.4,0-2.8,0.3-4.3,0.9c-1.5,0.6-2.7,1.3-3.7,2.3l-3.4-6c1.7-1.4,3.6-2.5,5.8-3.4c2.2-0.9,4.7-1.3,7.6-1.3c1.9,0,3.6,0.3,5.2,0.8
		c1.6,0.5,2.9,1.3,4.1,2.3c1.1,1,2,2.3,2.7,3.8C689.7,204.1,690,205.9,690,207.9z"/>
</g>
<g>
	<g>
		<path fill="#2D5972" d="M630.4,231.4c0-0.9-0.2-1.8-0.6-2.6c-21.9-19.1-51-38.9-66-40.1l-142-12c-4.6-0.4-9-0.1-13.3,0.7v13.7
			c1.8-0.1,3.5-0.2,5.3-0.1l143.4,5.9c15.6,0.6,45,19.4,67.4,40.6C627.9,237.4,630.4,234.7,630.4,231.4z"/>
		<path fill="#0F303F" d="M626,236.1c-22.5-21.2-52.1-40-67.8-40.6l-144.3-5.9c-1.8-0.1-3.6,0-5.4,0.1v1.5c1.8-0.1,3.5-0.2,5.3-0.1
			l143.4,5.9c15.6,0.6,45,19.4,67.4,40.6c2-0.1,3.7-1.2,4.7-2.8C628.5,235.5,627.3,236,626,236.1z"/>
	</g>
	<g>
		<path fill="#2D5972" d="M416.2,231.4c0-0.9,0.2-1.8,0.6-2.6c21.9-19.1,51-38.9,66-40.1l142-12c4.6-0.4,9-0.1,13.3,0.7v13.7
			c-1.8-0.1-3.5-0.2-5.3-0.1l-143.4,5.9c-15.6,0.6-45,19.4-67.4,40.6C418.8,237.4,416.2,234.7,416.2,231.4z"/>
		<path fill="#0F303F" d="M420.6,236.1c22.5-21.2,52.1-40,67.8-40.6l144.3-5.9c1.8-0.1,3.6,0,5.4,0.1v1.5c-1.8-0.1-3.5-0.2-5.3-0.1
			l-143.4,5.9c-15.6,0.6-45,19.4-67.4,40.6c-2-0.1-3.7-1.2-4.7-2.8C418.1,235.5,419.3,236,420.6,236.1z"/>
	</g>
	<g>
		<g>
			<path fill="#0F303F" d="M418.1,173.4c2-4.7,6.5-8.6,11.4-9.4c23.8-3.8,47.7-3.6,71.5,0.4c4.7,0.9,9.1,4.5,11.2,9h4.4
				c-2.4-6.7-8.4-12.4-15.4-13.8c-11.9-2.1-24-3.3-35.9-3.4c-11.9-0.1-24.1,0.9-36,2.9c-5.8,1-18.4,10.1-18.4,10.1
				c-1.3,0.2-2.3,1.5-2.3,2.9c0,0.4,0,0.8,0,1.2H418.1z"/>
			<path opacity="0.3" fill="#FFFFFF" d="M509.6,205.2c-2,6.7-9,12.7-14.6,13c-19.9,1-39.7,0.9-59.6,0c-5.6-0.3-12.6-6.3-14.6-13.1
				c-2.3-8.1-3.6-16.2-3.9-24.3c-0.3-6.8,5.7-13.6,12.6-14.7c23.8-3.7,47.7-3.5,71.5,0.4c6.8,1.2,12.9,8.1,12.5,14.8
				C513.1,189.1,511.8,197.1,509.6,205.2z"/>
			<path fill="#0F303F" d="M501.2,161.7c-11.9-2.1-24-3.2-35.9-3.3c-11.9-0.1-24.1,0.9-36,2.8c-5.8,1-18.4,9.8-18.4,9.8
				c-1.3,0.2-2.3,1.5-2.3,2.8c0,5.3,0,10.6,0,16c0,1.4,1.1,1.9,2.3,2.3c1.5,0.5,3.5,3.6,3.9,5.5c0.6,3,1.3,5.9,2.1,8.9
				c2.5,8.2,10.9,15.8,18.4,16.3c9.9,0.5,20,0.8,30,0.8c9.9,0,20-0.3,30-0.8c7.5-0.5,15.9-8,18.3-16.2c2.3-8.3,3.7-16.6,4.1-24.8
				C518.1,172.9,510.6,163.5,501.2,161.7z M509.6,205.2c-2,6.7-9,12.7-14.6,13c-19.9,1-39.7,0.9-59.6,0c-5.6-0.3-12.6-6.3-14.6-13.1
				c-2.3-8.1-3.6-16.2-3.9-24.3c-0.3-6.8,5.7-13.6,12.6-14.7c23.8-3.7,47.7-3.5,71.5,0.4c6.8,1.2,12.9,8.1,12.5,14.8
				C513.1,189.1,511.8,197.1,509.6,205.2z"/>
			<path fill="#2D5972" d="M424.5,211.6c-1.7-2-3-4.2-3.7-6.7c-2.3-8.1-3.6-16.2-3.9-24.3c-0.3-6.8,5.7-13.6,12.6-14.7
				c23.8-3.7,47.7-3.5,71.5,0.4c3.2,0.6,6.2,2.4,8.5,4.9c-2.4-3.3-6-5.9-9.9-6.6c-23.7-3.9-47.7-4-71.5-0.2
				c-6.8,1.2-12.9,8-12.6,14.8c0.4,8.1,1.7,16.1,3.9,24.2C420.4,206.5,422.2,209.4,424.5,211.6z"/>
		</g>
		<g>
			<path fill="#0F303F" d="M629.3,173.4c-2-4.7-6.5-8.6-11.4-9.4c-23.8-3.8-47.7-3.6-71.5,0.4c-4.7,0.9-9.1,4.5-11.2,9h-4.4
				c2.4-6.7,8.4-12.4,15.4-13.8c11.9-2.1,24-3.3,35.9-3.4c11.9-0.1,24.1,0.9,36,2.9c5.8,1,18.4,10.1,18.4,10.1
				c1.3,0.2,2.3,1.5,2.3,2.9c0,0.4,0,0.8,0,1.2H629.3z"/>
			<path opacity="0.3" fill="#FFFFFF" d="M537.9,205.2c2,6.7,9,12.7,14.6,13c19.9,1,39.7,0.9,59.6,0c5.6-0.3,12.6-6.3,14.6-13.1
				c2.3-8.1,3.6-16.2,3.9-24.3c0.3-6.8-5.7-13.6-12.6-14.7c-23.8-3.7-47.7-3.5-71.5,0.4c-6.8,1.2-12.9,8.1-12.5,14.8
				C534.3,189.1,535.6,197.1,537.9,205.2z"/>
			<path fill="#0F303F" d="M546.3,161.7c11.9-2.1,24-3.2,35.9-3.3c11.9-0.1,24.1,0.9,36,2.8c5.8,1,18.4,9.8,18.4,9.8
				c1.3,0.2,2.3,1.5,2.3,2.8c0,5.3,0,10.6,0,16c0,1.4-1.1,1.9-2.3,2.3c-1.5,0.5-3.5,3.6-3.9,5.5c-0.6,3-1.3,5.9-2.1,8.9
				c-2.5,8.2-10.9,15.8-18.4,16.3c-9.9,0.5-20,0.8-30,0.8c-9.9,0-20-0.3-30-0.8c-7.5-0.5-15.9-8-18.3-16.2
				c-2.3-8.3-3.7-16.6-4.1-24.8C529.3,172.9,536.8,163.5,546.3,161.7z M537.9,205.2c2,6.7,9,12.7,14.6,13c19.9,1,39.7,0.9,59.6,0
				c5.6-0.3,12.6-6.3,14.6-13.1c2.3-8.1,3.6-16.2,3.9-24.3c0.3-6.8-5.7-13.6-12.6-14.7c-23.8-3.7-47.7-3.5-71.5,0.4
				c-6.8,1.2-12.9,8.1-12.5,14.8C534.3,189.1,535.6,197.1,537.9,205.2z"/>
			<path fill="#2D5972" d="M622.9,211.6c1.7-2,3-4.2,3.7-6.7c2.3-8.1,3.6-16.2,3.9-24.3c0.3-6.8-5.7-13.6-12.6-14.7
				c-23.8-3.7-47.7-3.5-71.5,0.4c-3.2,0.6-6.2,2.4-8.5,4.9c2.3-3.3,6-5.9,9.9-6.6c23.7-3.9,47.7-4,71.5-0.2
				c6.8,1.2,12.9,8,12.6,14.8c-0.4,8.1-1.7,16.1-3.9,24.2C627,206.5,625.2,209.4,622.9,211.6z"/>
		</g>
		<g>
			<path fill="#0F303F" d="M525.3,169.8c-4.3,0.2-8.5-0.5-12.8-2.1c3.9,5.7,5.5,15.7,4.3,21.5c1.1-5.4,4.9-6.7,8.5-5.9V169.8z"/>
			<path fill="#0F303F" d="M522,169.8c4.3,0.2,8.5-0.5,12.8-2.1c-3.9,5.7-5.5,15.7-4.3,21.5c-1.1-5.4-4.9-6.7-8.5-5.9V169.8z"/>
		</g>
	</g>
</g>
<g>
	<path fill="#2D5972" d="M731.7,626.4c0,4.6-3.7,8.4-8.3,8.4H240.9c-4.6,0-8.3-3.7-8.3-8.4V287.1c0-4.6,3.7-8.3,8.3-8.3h482.5
		c4.6,0,8.3,3.7,8.3,8.3V626.4z"/>
	<rect x="245.3" y="590.2" fill="#D1EBFA" width="473.6" height="32"/>
	<path fill="#FFFFFF" d="M482,611.4V300c0.1-0.3,0.3-0.6,0.3-0.9c0-0.9-0.1-1.7-0.1-2.6c1.3-15.4,14.2-27.5,29.9-27.5h206.8v324.2
		H512.1C499.1,593.2,487.7,600.6,482,611.4z"/>
	<path fill="#FFFFFF" d="M482.2,611.4V300c-0.2-0.3-0.3-0.6-0.3-0.9c0-0.9,0.1-1.7,0.1-2.6c-1.3-15.4-14.2-27.5-29.9-27.5H245.3
		v324.2h206.8C465.2,593.2,476.5,600.6,482.2,611.4z"/>
	<path fill="#D1EBFA" d="M482.1,296.5c-0.9-10.7-7.5-19.9-16.8-24.4v323.8c7.3,3.1,13.2,8.6,16.9,15.5V300c-0.2-0.3-0.3-0.6-0.3-0.9
		C482,298.2,482,297.4,482.1,296.5z"/>
	<rect x="275.2" y="309" fill="#A7DAE9" width="107.4" height="9.4"/>
	<g>
		<rect x="275.2" y="339.4" fill="#A7DAE9" width="175.2" height="7"/>
		<rect x="275.2" y="360" fill="#A7DAE9" width="175.2" height="7"/>
		<rect x="275.2" y="380.7" fill="#A7DAE9" width="175.2" height="7"/>
		<rect x="275.2" y="401.3" fill="#A7DAE9" width="175.2" height="7"/>
		<rect x="275.2" y="422" fill="#A7DAE9" width="175.2" height="7"/>
		<rect x="275.2" y="442.6" fill="#A7DAE9" width="175.2" height="7"/>
		<rect x="275.2" y="463.3" fill="#A7DAE9" width="175.2" height="7"/>
		<rect x="275.2" y="483.9" fill="#A7DAE9" width="175.2" height="7"/>
		<rect x="275.2" y="504.6" fill="#A7DAE9" width="175.2" height="7"/>
		<rect x="275.2" y="525.2" fill="#A7DAE9" width="175.2" height="7"/>
		<rect x="275.2" y="545.9" fill="#A7DAE9" width="175.2" height="7"/>
	</g>
	<g>
		<rect x="511.9" y="339.4" fill="#A7DAE9" width="175.2" height="7"/>
		<rect x="511.9" y="360" fill="#A7DAE9" width="175.2" height="7"/>
		<rect x="511.9" y="380.7" fill="#A7DAE9" width="175.2" height="7"/>
		<rect x="511.9" y="401.3" fill="#A7DAE9" width="175.2" height="7"/>
		<rect x="511.9" y="422" fill="#A7DAE9" width="175.2" height="7"/>
		<rect x="511.9" y="442.6" fill="#A7DAE9" width="175.2" height="7"/>
		<rect x="511.9" y="463.3" fill="#A7DAE9" width="175.2" height="7"/>
		<rect x="511.9" y="483.9" fill="#A7DAE9" width="175.2" height="7"/>
		<rect x="511.9" y="504.6" fill="#A7DAE9" width="175.2" height="7"/>
		<rect x="511.9" y="525.2" fill="#A7DAE9" width="175.2" height="7"/>
		<rect x="511.9" y="545.9" fill="#A7DAE9" width="175.2" height="7"/>
	</g>
	<polygon fill="#F26328" points="454.7,654.7 434,643.1 413.3,654.7 413.3,267.3 434,267.3 454.7,267.3 	"/>
</g>
<g>
	<path fill="#FDC015" d="M640.3,504.3c7.2,0,13,5.8,13,13v95.9c0,7.2-5.8,13-13,13l0,0c-7.2,0-13-5.8-13-13v-95.9
		C627.3,510.1,633.1,504.3,640.3,504.3L640.3,504.3z"/>
	<path fill="#FDC015" d="M594.9,626.8c0,18.7,15.2,33.9,33.8,33.9h55c18.7,0,33.9-15.2,33.9-33.9v-55c0-18.7-15.2-33.8-33.9-33.8
		h-55c-18.7,0-33.8,15.2-33.8,33.8V626.8z"/>
	<path fill="#FDC015" d="M704.6,529.7c7.2,0,13,5.8,13,13v61.5c0,7.2-5.8,13-13,13l0,0c-7.2,0-13-5.8-13-13v-61.5
		C691.5,535.6,697.4,529.7,704.6,529.7L704.6,529.7z"/>
	<path fill="#FDC015" d="M672.7,516.1c7.2,0,13,5.8,13,13v95.9c0,7.2-5.8,13-13,13l0,0c-7.2,0-13-5.8-13-13v-95.9
		C659.7,522,665.5,516.1,672.7,516.1L672.7,516.1z"/>
	<path fill="#FDC015" d="M608,464c7.2,0,13,5.8,13,13V573c0,7.2-5.8,13-13,13l0,0c-7.2,0-13-5.8-13-13V477
		C595,469.8,600.8,464,608,464L608,464z"/>
	<path fill="#FDC015" d="M588.9,622v-49.7c0-10.6-8.6-19.2-19.2-19.2h-6.4c-0.3,0-0.5,0-0.8,0v42.5L588.9,622z"/>
	<path fill="#FDC015" d="M605.5,614.9l-32.3-32.3c-3.1-3.1-6.9-4.8-10.9-5.4v32l43.2,43.1V614.9z"/>
</g>
<g>
	<g>
		<path fill="#FDC015" d="M344.3,692.3c0,18.7-15.2,33.9-33.8,33.8h-55c-18.7,0-33.9-15.2-33.8-33.8l0-55
			c0-18.7,15.2-33.8,33.9-33.8h55c18.7,0,33.8,15.2,33.8,33.8V692.3z"/>
		<path fill="#FDC015" d="M234.6,560.4c-7.2,0-13,5.8-13,13v95.9c0,7.2,5.8,13,13,13l0,0c7.2,0,13-5.8,13-13v-95.9
			C247.7,566.3,241.8,560.4,234.6,560.4L234.6,560.4z"/>
		<path fill="#FDC015" d="M266.5,529.5c-7.2,0-13,5.8-13,13v95.9c0,7.2,5.8,13,13,13l0,0c7.2,0,13-5.8,13-13v-95.9
			C279.5,535.3,273.7,529.5,266.5,529.5L266.5,529.5z"/>
		<path fill="#FDC015" d="M331.2,529.5c-7.2,0-13,5.8-13,13v95.9c0,7.2,5.8,13,13,13l0,0c7.2,0,13-5.8,13-13v-95.9
			C344.2,535.3,338.4,529.5,331.2,529.5L331.2,529.5z"/>
		<path fill="#FDC015" d="M298.9,498.5c-7.2,0-13,5.8-13,13v95.9c0,7.2,5.8,13,13,13l0,0c7.2,0,13-5.8,13-13v-95.9
			C311.9,504.3,306.1,498.5,298.9,498.5L298.9,498.5z"/>
		<path fill="#FDC015" d="M350.3,687.5v-49.7c0-10.6,8.6-19.2,19.2-19.2h6.4c0.3,0,0.5,0,0.8,0V661L350.3,687.5z"/>
		<path fill="#FDC015" d="M333.7,680.3l32.3-32.3c3.1-3.1,6.9-4.8,10.9-5.4v32l-43.1,43.1V680.3z"/>
	</g>
</g>
<g>
	<path fill="#0F303F" d="M796.3,554V318.1c-3.4,0.5-6,3.2-6.4,6.5V554H796.3z"/>
	<path fill="#2D5972" d="M774.7,554h15.2V324.6l0,0c0,0,0-0.1,0-0.1c0,0,0,0.1,0,0.1c-0.5-3.7-3.7-6.6-7.6-6.6
		c-3.9,0-7.1,2.9-7.6,6.6c0,0,0-0.1,0-0.1c0,0,0,0.1,0,0.1l0,0V554z"/>
	<path fill="#0F303F" d="M774.7,324.6c-0.4-3.3-3.1-6-6.4-6.5V554h6.4V324.6z"/>
	<path fill="#FFFFFF" d="M768.3,318.1c3.4,0.5,6,3.2,6.4,6.5l0,0c0,0,0-0.1,0-0.1c0,0,0,0.1,0,0.1c0.5-3.7,3.7-6.6,7.6-6.6
		c3.9,0,7.1,2.9,7.6,6.6c0,0,0-0.1,0-0.1c0,0,0,0.1,0,0.1l0,0c0.4-3.3,3.1-6,6.4-6.5l-14-17.5L768.3,318.1z"/>
	<path fill="#2D5972" d="M789.2,309.2l-6.9-8.6l-6.9,8.6c2.2,0.5,4.5,0.8,6.9,0.8C784.7,310,787,309.7,789.2,309.2z"/>
	<g>
		<rect x="789.9" y="554.1" fill="#F99B1F" width="6.4" height="8.3"/>
		<rect x="774.7" y="554.1" fill="#FDC015" width="15.2" height="8.3"/>
		<rect x="768.3" y="554.1" fill="#F99B1F" width="6.4" height="8.3"/>
	</g>
</g>
<g>
	<circle fill="#D1EBFA" cx="128.7" cy="540.7" r="62.4"/>
	<path fill="#A7DAE9" d="M154,513.9c-1.8,0-3.8,0.2-5.9,0.5L133,499.3l-0.1,0.1c-1.8-1.8-3.8-2.8-5.9-2.8c-5.9,0-10.9,7.7-13.8,19.5
		c-1.2-0.3-2.4-0.7-3.5-0.9l-3.9-3.9c-1-1.2-2.5-2-4.1-2c-2.8,0-5.1,2.1-5.3,4.9c-3.4,0.6-5.8,2-7,4.2c-2.9,5.1,1.2,13.3,10,21.7
		c-8.8,8.4-12.9,16.7-10,21.7c0.2,0.4,0.5,0.8,0.9,1.2l0,0l40.1,40.1c32.5-0.8,58.8-26.3,60.8-58.5l-26.8-26.8
		C162.4,515.2,158.9,513.9,154,513.9z"/>
	<g>
		<g>
			<g>
				<path fill="#F26328" d="M127,583.5c-9.3,0-16.5-19.1-16.5-43.5c0-24.4,7.3-43.5,16.5-43.5c9.3,0,16.5,19.1,16.5,43.5
					C143.5,564.4,136.2,583.5,127,583.5L127,583.5z M127,499.3c-6.7,0-13.8,16.4-13.8,40.7c0,24.4,7.1,40.7,13.8,40.7
					c6.7,0,13.8-16.4,13.8-40.7C140.8,515.7,133.6,499.3,127,499.3L127,499.3z"/>
			</g>
			<g>
				<path fill="#F26328" d="M154,566.2c-9.2,0-22.3-4.4-35.2-11.9c-21.1-12.2-34-28-29.4-36c1.7-2.9,5.4-4.4,10.7-4.4
					c9.2,0,22.3,4.4,35.2,11.9c21.1,12.2,34,28,29.4,36C163,564.7,159.3,566.2,154,566.2L154,566.2z M100,516.6
					c-3,0-6.8,0.5-8.3,3.1c-3.3,5.8,7.3,20.1,28.4,32.3c12.5,7.2,25.1,11.5,33.9,11.5c3,0,6.8-0.5,8.3-3.1
					c3.3-5.8-7.3-20.1-28.4-32.3C121.4,520.9,108.7,516.6,100,516.6L100,516.6z"/>
			</g>
			<g>
				<path fill="#F26328" d="M100,566.2L100,566.2c-5.3,0-9-1.5-10.7-4.4c-4.6-8,8.3-23.8,29.4-36c12.9-7.4,26-11.9,35.2-11.9
					c5.3,0,9,1.5,10.7,4.4c4.6,8-8.3,23.8-29.4,36C122.4,561.8,109.2,566.2,100,566.2L100,566.2z M154,516.6
					c-8.7,0-21.4,4.3-33.9,11.5c-21.1,12.2-31.7,26.5-28.4,32.3c1.5,2.5,5.3,3.1,8.3,3.1c8.7,0,21.4-4.3,33.9-11.5
					c21.1-12.2,31.7-26.5,28.4-32.3C160.8,517.2,156.9,516.6,154,516.6L154,516.6z"/>
			</g>
		</g>
		<g>
			<circle fill="#DC4226" cx="127" cy="540.1" r="8.3"/>
			<circle fill="#F26328" cx="124.3" cy="538.9" r="3.4"/>
		</g>
		<g>
			<circle fill="#103754" cx="101.6" cy="514.6" r="5.3"/>
			<circle fill="#1C5F90" cx="99.9" cy="513.8" r="2.2"/>
		</g>
		<g>
			<circle fill="#103754" cx="159.6" cy="532.1" r="5.3"/>
			<circle fill="#1C5F90" cx="157.9" cy="531.3" r="2.2"/>
		</g>
		<g>
			<path fill="#103754" d="M124,572.8c0,2.9-2.4,5.3-5.3,5.3c-2.9,0-5.3-2.4-5.3-5.3c0-2.9,2.4-5.3,5.3-5.3
				C121.6,567.5,124,569.8,124,572.8z"/>
			<circle fill="#1C5F90" cx="117" cy="572" r="2.2"/>
		</g>
	</g>
</g>
<g>
	<g>
		<path fill="#2E5166" d="M170.7,358.7V350c0-1.3-1.6-2.4-3.5-2.4H90.8c-1.9,0-3.5,1.1-3.5,2.4v8.7H170.7z"/>
		<rect x="85.8" y="356.7" fill="#0F303F" width="86.3" height="4.7"/>
		<g>
			<path fill="#1895A4" d="M168.7,251.5c-2.7-1.3-5.4-2.2-8.2-2.7l-10.6,22.7c6.3-5.6,13.1-8,18.3-5.5c9.1,4.2,10.1,21.2,2.3,37.9
				c-7.8,16.7-21.5,26.8-30.5,22.6c-5.2-2.4-7.8-9.1-7.5-17.6l-10.6,22.7c2.2,1.8,4.7,3.3,7.4,4.6c20.9,9.8,46.7-1.3,57.7-24.6
				C197.7,288.2,189.6,261.3,168.7,251.5z"/>
			<path fill="#1895A4" d="M144.2,275.1c-0.5,1-1.3,1.6-1.8,1.4l-13.7-6.4c-0.5-0.2-0.6-1.2-0.1-2.2l23.1-49.5
				c0.5-1,1.3-1.6,1.8-1.4l13.7,6.4c0.5,0.2,0.6,1.2,0.1,2.2L144.2,275.1z"/>
			<path fill="#1895A4" d="M135.3,288.1c-0.3,0.7-0.9,1.1-1.2,1l-9.7-4.5c-0.4-0.2-0.4-0.9-0.1-1.6l16.2-34.7c0.3-0.7,0.9-1.1,1.2-1
				l9.6,4.5c0.4,0.2,0.4,0.9,0.1,1.6L135.3,288.1z"/>
			<path fill="#FFFFFF" d="M150.3,271.5c-0.4,0.8-1.3,1.1-2,0.7l-20.2-9.4c-0.8-0.4-1.1-1.3-0.7-2l17.5-37.3c0.4-0.8,1.3-1.1,2-0.7
				l20.2,9.4c0.8,0.4,1.1,1.3,0.7,2L150.3,271.5z"/>
			<path fill="#FFFFFF" d="M168.7,224.3c-0.3,0.6-1,0.9-1.5,0.6l-14.8-6.9c-0.6-0.3-0.8-1-0.5-1.6l10.8-23c0.3-0.6,1-0.9,1.5-0.6
				l14.8,6.9c0.6,0.3,0.8,1,0.5,1.6L168.7,224.3z"/>
			<path fill="#1895A4" d="M173.3,219.4c-0.4,0.8-1.2,1.1-1.9,0.8l-18.1-8.5c-0.7-0.3-0.9-1.2-0.6-1.9l0.7-1.4
				c0.4-0.8,1.2-1.1,1.9-0.8l18.1,8.5c0.7,0.3,0.9,1.2,0.6,1.9L173.3,219.4z"/>
			<path fill="#1895A4" d="M135.2,326c-0.4,0.8-1.2,1.1-2,0.7l-18.4-8.6c-0.8-0.4-1.1-1.2-0.7-2l0.4-0.9c0.4-0.8,1.3-1.1,2-0.7
				l18.4,8.6c0.8,0.4,1.1,1.3,0.7,2L135.2,326z"/>
			<path fill="#2E5166" d="M121,319.9c-0.7,1.5-1.9,2.5-2.7,2.1l-18.4-8.6c-0.8-0.4-0.8-1.9-0.1-3.4l0.9-1.9
				c0.7-1.5,1.9-2.5,2.7-2.1l18.4,8.6c0.8,0.4,0.8,1.9,0.1,3.4L121,319.9z"/>
			<path fill="#1895A4" d="M140.5,316.7c-0.7,1.5-1.9,2.5-2.7,2.1l-18.4-8.6c-0.8-0.3-0.8-1.9-0.1-3.4l0.9-1.9
				c0.7-1.5,1.9-2.5,2.7-2.1l18.4,8.6c0.8,0.4,0.8,1.9,0.1,3.4L140.5,316.7z"/>
			<path fill="#1895A4" d="M170.7,256.7c-2.5,5.2-8.7,7.5-13.9,5.1c-5.2-2.5-7.5-8.7-5.1-13.9c2.5-5.2,8.7-7.5,13.9-5.1
				C170.9,245.2,173.2,251.5,170.7,256.7z"/>
			<path fill="#2E5166" d="M169,255.9c-2,4.3-7.1,6.2-11.5,4.2c-4.3-2-6.2-7.1-4.2-11.5c2-4.3,7.1-6.2,11.5-4.2
				C169.2,246.5,171.1,251.6,169,255.9z"/>
			<path fill="#2E5166" d="M144.2,314.5c-0.5,1-1.5,1.6-2.2,1.2l-47.2-22.1c-0.8-0.4-1-1.5-0.5-2.5l0.6-1.3c0.5-1,1.5-1.6,2.2-1.2
				l47.2,22.1c0.8,0.4,1,1.5,0.5,2.5L144.2,314.5z"/>
		</g>
		<path fill="#2E5166" d="M165.8,352.8l-6.6-16.7c-1.7-4.4-4.5-8-9.2-8c-3.3,0-6.3,3.6-6.7,8l-1.4,16.7H165.8z"/>
		<circle fill="#1895A4" cx="150.6" cy="334.8" r="5.1"/>
	</g>
</g>
<g>
	<g>
		<path fill="#175079" d="M299.4,189h26.1c0.9,0,1.7-0.7,1.7-1.7c0-0.9-0.7-1.7-1.7-1.7h-26.1c-0.9,0-1.7,0.7-1.7,1.7
			C297.8,188.3,298.5,189,299.4,189L299.4,189z"/>
	</g>
	<g>
		<g>
			<path fill="#FFFFFF" d="M312.5,82.4c-0.5,0-0.8-0.4-0.8-0.8v-6.8c0-0.5,0.4-0.8,0.8-0.8c0.5,0,0.8,0.4,0.8,0.8v6.8
				C313.4,82.1,313,82.4,312.5,82.4L312.5,82.4z"/>
		</g>
		<g>
			<path fill="#FFFFFF" d="M323.1,83.8c-0.1,0-0.1,0-0.2,0c-0.4-0.1-0.7-0.6-0.6-1l1.8-6.5c0.1-0.4,0.6-0.7,1-0.6
				c0.4,0.1,0.7,0.6,0.6,1l-1.8,6.5C323.8,83.6,323.5,83.8,323.1,83.8L323.1,83.8z"/>
		</g>
		<g>
			<path fill="#FFFFFF" d="M333,88c-0.1,0-0.3,0-0.4-0.1c-0.4-0.2-0.5-0.7-0.3-1.1l3.4-5.9c0.2-0.4,0.7-0.5,1.1-0.3
				c0.4,0.2,0.5,0.7,0.3,1.1l-3.4,5.9C333.6,87.8,333.3,88,333,88L333,88z"/>
		</g>
		<g>
			<path fill="#FFFFFF" d="M341.5,94.5c-0.2,0-0.4-0.1-0.6-0.2c-0.3-0.3-0.3-0.9,0-1.2l4.8-4.8c0.3-0.3,0.9-0.3,1.2,0
				c0.3,0.3,0.3,0.9,0,1.2l-4.8,4.8C341.9,94.4,341.7,94.5,341.5,94.5L341.5,94.5z"/>
		</g>
		<g>
			<path fill="#FFFFFF" d="M348,103c-0.3,0-0.6-0.2-0.7-0.4c-0.2-0.4-0.1-0.9,0.3-1.1l5.9-3.4c0.4-0.2,0.9-0.1,1.1,0.3
				c0.2,0.4,0.1,0.9-0.3,1.1l-5.9,3.4C348.3,102.9,348.1,103,348,103L348,103z"/>
		</g>
		<g>
			<path fill="#FFFFFF" d="M352.1,112.9c-0.4,0-0.7-0.2-0.8-0.6c-0.1-0.4,0.1-0.9,0.6-1l6.5-1.8c0.4-0.1,0.9,0.1,1,0.6
				s-0.1,0.9-0.6,1l-6.5,1.8C352.2,112.9,352.1,112.9,352.1,112.9L352.1,112.9z"/>
		</g>
		<g>
			<path fill="#FFFFFF" d="M360.2,123.5h-6.8c-0.5,0-0.8-0.4-0.8-0.8s0.4-0.8,0.8-0.8h6.8c0.5,0,0.8,0.4,0.8,0.8
				S360.7,123.5,360.2,123.5L360.2,123.5z"/>
		</g>
		<g>
			<path fill="#FFFFFF" d="M358.6,135.8c-0.1,0-0.1,0-0.2,0l-6.5-1.8c-0.4-0.1-0.7-0.6-0.6-1c0.1-0.4,0.6-0.7,1-0.6l6.5,1.8
				c0.4,0.1,0.7,0.6,0.6,1C359.3,135.6,358.9,135.8,358.6,135.8L358.6,135.8z"/>
		</g>
		<g>
			<path fill="#FFFFFF" d="M353.8,147.3c-0.1,0-0.3,0-0.4-0.1l-5.9-3.4c-0.4-0.2-0.5-0.7-0.3-1.1c0.2-0.4,0.7-0.5,1.1-0.3l5.9,3.4
				c0.4,0.2,0.5,0.7,0.3,1.1C354.3,147.2,354.1,147.3,353.8,147.3L353.8,147.3z"/>
		</g>
		<g>
			<path fill="#FFFFFF" d="M346.2,157.2c-0.2,0-0.4-0.1-0.6-0.2l-4.8-4.8c-0.3-0.3-0.3-0.9,0-1.2c0.3-0.3,0.9-0.3,1.2,0l4.8,4.8
				c0.3,0.3,0.3,0.9,0,1.2C346.6,157.1,346.4,157.2,346.2,157.2L346.2,157.2z"/>
		</g>
		<g>
			<path fill="#FFFFFF" d="M278.6,157.1c-0.2,0-0.4-0.1-0.6-0.2c-0.3-0.3-0.3-0.9,0-1.2l4.8-4.8c0.3-0.3,0.9-0.3,1.2,0
				c0.3,0.3,0.3,0.9,0,1.2l-4.8,4.8C279.1,157,278.9,157.1,278.6,157.1L278.6,157.1z"/>
		</g>
		<g>
			<path fill="#FFFFFF" d="M271.1,147.2c-0.3,0-0.6-0.1-0.7-0.4c-0.2-0.4-0.1-0.9,0.3-1.1l5.9-3.4c0.4-0.2,0.9-0.1,1.1,0.3
				c0.2,0.4,0.1,0.9-0.3,1.1l-5.9,3.4C271.4,147.2,271.2,147.2,271.1,147.2L271.1,147.2z"/>
		</g>
		<g>
			<path fill="#FFFFFF" d="M266.3,135.7c-0.4,0-0.7-0.2-0.8-0.6c-0.1-0.4,0.1-0.9,0.6-1l6.5-1.8c0.4-0.1,0.9,0.1,1,0.6
				c0.1,0.4-0.1,0.9-0.6,1l-6.5,1.8C266.5,135.7,266.4,135.7,266.3,135.7L266.3,135.7z"/>
		</g>
		<g>
			<path fill="#FFFFFF" d="M271.5,123.3h-6.8c-0.5,0-0.8-0.4-0.8-0.8c0-0.5,0.4-0.8,0.8-0.8h6.8c0.5,0,0.8,0.4,0.8,0.8
				C272.3,123,271.9,123.3,271.5,123.3L271.5,123.3z"/>
		</g>
		<g>
			<path fill="#FFFFFF" d="M272.9,112.7c-0.1,0-0.1,0-0.2,0l-6.5-1.8c-0.4-0.1-0.7-0.6-0.6-1c0.1-0.4,0.6-0.7,1-0.6l6.5,1.8
				c0.4,0.1,0.7,0.6,0.6,1C273.6,112.5,273.3,112.7,272.9,112.7L272.9,112.7z"/>
		</g>
		<g>
			<path fill="#FFFFFF" d="M277,102.9c-0.1,0-0.3,0-0.4-0.1l-5.9-3.4c-0.4-0.2-0.5-0.7-0.3-1.1c0.2-0.4,0.7-0.5,1.1-0.3l5.9,3.4
				c0.4,0.2,0.5,0.7,0.3,1.1C277.6,102.7,277.3,102.9,277,102.9L277,102.9z"/>
		</g>
		<g>
			<path fill="#FFFFFF" d="M283.5,94.4c-0.2,0-0.4-0.1-0.6-0.2l-4.8-4.8c-0.3-0.3-0.3-0.9,0-1.2c0.3-0.3,0.9-0.3,1.2,0l4.8,4.8
				c0.3,0.3,0.3,0.9,0,1.2C284,94.3,283.7,94.4,283.5,94.4L283.5,94.4z"/>
		</g>
		<g>
			<path fill="#FFFFFF" d="M292,87.9c-0.3,0-0.6-0.1-0.7-0.4l-3.4-5.9c-0.2-0.4-0.1-0.9,0.3-1.1c0.4-0.2,0.9-0.1,1.1,0.3l3.4,5.9
				c0.2,0.4,0.1,0.9-0.3,1.1C292.3,87.8,292.2,87.9,292,87.9L292,87.9z"/>
		</g>
		<g>
			<path fill="#FFFFFF" d="M301.9,83.8c-0.4,0-0.7-0.2-0.8-0.6l-1.7-6.5c-0.1-0.4,0.1-0.9,0.6-1c0.5-0.1,0.9,0.1,1,0.6l1.7,6.5
				c0.1,0.4-0.1,0.9-0.6,1C302.1,83.8,302,83.8,301.9,83.8L301.9,83.8z"/>
		</g>
	</g>
	<path fill="#F99F1B" d="M280,122.2c0-17.9,14.5-32.5,32.5-32.5c17.9,0,32.5,14.5,32.5,32.5c0,1.1-0.8,16.1-13,31.8
		c-3.6,4.8-3,14.3-3,14.3c-5,0-9.2,0-14.2,0c-1.5,0-3.1,0-4.6,0c-5,0-9.2,0-14.3,0c0,0,0.7-9.6-2.9-14.3
		C280.8,138.3,280,123.3,280,122.2z"/>
	<path fill="#FFCA0B" d="M312.5,168.4c-5,0-11.5,0-16.6,0c0,0,0.7-9.6-2.9-14.3c-12.2-15.8-13-30.8-13-31.8
		c0-17.9,14.5-32.5,32.5-32.5"/>
	<g>
		<path fill="#FFCA0B" d="M338,122.2h-2.8c0-12.5-10.2-22.7-22.7-22.7v-2.8C326.6,96.7,338,108.1,338,122.2L338,122.2z"/>
	</g>
	<g>
		<g>
			<g>
				<polygon fill="#175079" points="319.6,170.9 316.7,170.4 322.3,136.9 325.1,137.3 319.6,170.9 				"/>
			</g>
			<g>
				<polygon fill="#175079" points="305.4,170.9 299.8,137.3 302.6,136.9 308.2,170.4 305.4,170.9 				"/>
			</g>
		</g>
		<g>
			<path fill="#175079" d="M323.5,141.6c-1.2,0-1.7-1.1-2-2c-0.2-0.3-0.5-1.1-0.7-1.1c-0.2,0-0.5,0.7-0.7,1.1c-0.4,0.8-0.9,2-2,2
				c-1.2,0-1.7-1.1-2-2c-0.2-0.3-0.5-1.1-0.7-1.1s-0.5,0.7-0.7,1.1c-0.4,0.8-0.9,2-2,2c-1.2,0-1.7-1.1-2-2c-0.2-0.3-0.5-1.1-0.7-1.1
				c-0.2,0-0.5,0.7-0.7,1.1c-0.4,0.8-0.9,2-2,2c-1.2,0-1.7-1.1-2-2c-0.2-0.3-0.5-1.1-0.7-1.1c-0.2,0-0.5,0.7-0.7,1.1
				c-0.4,0.8-0.9,2-2,2v-1.5c0.2,0,0.5-0.7,0.7-1.1c0.4-0.8,0.9-2,2-2c1.2,0,1.7,1.1,2,2c0.2,0.3,0.5,1.1,0.7,1.1
				c0.2,0,0.5-0.7,0.7-1.1c0.4-0.8,0.9-2,2-2c1.2,0,1.7,1.1,2,2c0.2,0.3,0.5,1.1,0.7,1.1c0.2,0,0.5-0.7,0.7-1.1c0.4-0.8,0.9-2,2-2
				s1.7,1.1,2,2c0.2,0.3,0.5,1.1,0.7,1.1c0.2,0,0.5-0.7,0.7-1.1c0.4-0.8,0.9-2,2-2c1.2,0,1.7,1.1,2,2c0.2,0.3,0.5,1.1,0.7,1.1V141.6
				L323.5,141.6z"/>
		</g>
	</g>
	<path fill="#103754" d="M329,168.5v17c0,1.2-0.9,2.1-2.1,2.1h-28.8c-1.2,0-2.1-0.9-2.1-2.1v-17H329z"/>
	<g>
		<path fill="#175079" d="M329.7,171.8h-34.4c-0.9,0-1.7-0.7-1.7-1.7s0.7-1.7,1.7-1.7h34.4c0.9,0,1.7,0.7,1.7,1.7
			S330.6,171.8,329.7,171.8L329.7,171.8z"/>
	</g>
	<g>
		<path fill="#175079" d="M329.7,177.4h-34.4c-0.9,0-1.7-0.7-1.7-1.7c0-0.9,0.7-1.7,1.7-1.7h34.4c0.9,0,1.7,0.7,1.7,1.7
			C331.3,176.6,330.6,177.4,329.7,177.4L329.7,177.4z"/>
	</g>
	<g>
		<path fill="#175079" d="M329.7,182.9h-34.4c-0.9,0-1.7-0.7-1.7-1.7c0-0.9,0.7-1.7,1.7-1.7h34.4c0.9,0,1.7,0.7,1.7,1.7
			C331.3,182.2,330.6,182.9,329.7,182.9L329.7,182.9z"/>
	</g>
</g>
</svg>
